<svg width="582" height="157" viewBox="0 0 582 157" fill="gray" xmlns="http://www.w3.org/2000/svg">
<path d="M38.2488 106.837L38.3706 83.6932C38.4065 76.8719 30.5085 72.8115 26.5551 71.634L8.03997 63.7164C1.90075 60.1108 0.284744 63.6758 0.244141 65.909L0.60957 135.95C2.75342 157.291 20.0991 157.672 28.504 155.196L103.052 123.89C117.669 119.213 122.054 106.593 122.419 100.868L122.907 60.793C122.517 70.6352 106.422 78.8614 98.4229 81.7442L38.2488 106.837Z" fill="#1A5AFA"/>
<path d="M5.6051 44.4987L96.3516 82.7088C143.224 65.1683 117.833 46.8131 99.5204 39.8699L6.94495 1.13445C1.78021 -1.78898 0.489024 1.62169 0.489024 3.69245L0.00184247 35.4848C-0.0956054 40.3572 3.69674 43.5242 5.6051 44.4987Z" fill="#1A5AFA"/>
<path d="M143.949 72.2887V20.8594H163.409C167.579 20.8594 171.239 21.6007 174.39 23.0833C177.587 24.5197 180.228 26.4656 182.313 28.9213C184.398 31.3769 185.973 34.1337 187.039 37.1917C188.104 40.2496 188.637 43.3771 188.637 46.5741C188.637 49.771 188.104 52.8985 187.039 55.9564C185.973 59.0144 184.398 61.7712 182.313 64.2268C180.228 66.6825 177.587 68.6516 174.39 70.1343C171.239 71.5706 167.579 72.2887 163.409 72.2887H143.949ZM162.922 30.2418H154.652V62.7674H162.922C166.305 62.7674 169.085 61.9797 171.262 60.4044C173.486 58.8291 175.131 56.7904 176.197 54.2885C177.309 51.7865 177.865 49.1919 177.865 46.5046C177.865 43.8173 177.309 41.2458 176.197 38.7902C175.131 36.2882 173.486 34.2495 171.262 32.6742C169.085 31.0526 166.305 30.2418 162.922 30.2418Z" fill="gray"/>
<path d="M211.906 72.2887V20.8594H247.351V30.1723H222.609V41.7091H244.154V50.6745H222.609V62.9759H247.698V72.2887H211.906Z" fill="gray"/>
<path d="M302.728 72.2887L320.242 20.8594H308.983L295.569 61.7944L282.226 20.8594H270.967L288.481 72.2887H302.728Z" fill="gray"/>
<path d="M343.51 72.2887V20.8594H354.213V62.9759H379.371V72.2887H343.51Z" fill="gray"/>
<path d="M434.402 20.8597L451.916 72.2891H440.657L427.244 31.3541L413.9 72.2891H402.641L420.155 20.8597H434.402Z" fill="gray"/>
<path d="M475.184 72.2887V20.8594H498.952C502.288 20.8594 505.091 21.4385 507.362 22.5969C509.678 23.7552 511.439 25.3073 512.644 27.2533C513.848 29.1529 514.451 31.2611 514.451 33.5777C514.451 35.848 514.034 37.7477 513.2 39.2766C512.366 40.7593 511.346 41.9639 510.142 42.8906C508.983 43.7709 507.848 44.3733 506.736 44.6976V45.2536C507.987 45.5316 509.377 46.1339 510.906 47.0606C512.435 47.9872 513.756 49.3077 514.868 51.022C515.98 52.7363 516.536 54.9603 516.536 57.6939C516.536 60.1032 515.956 62.4199 514.798 64.6438C513.686 66.8678 511.856 68.698 509.308 70.1343C506.806 71.5706 503.539 72.2887 499.508 72.2887H475.184ZM497.145 29.8248H485.886V41.7786H497.145C499.555 41.7786 501.315 41.1995 502.427 40.0411C503.539 38.8828 504.095 37.4697 504.095 35.8017C504.095 34.18 503.539 32.7901 502.427 31.6317C501.315 30.4271 499.555 29.8248 497.145 29.8248ZM497.979 49.9795H485.886V63.3234H497.979C500.713 63.3234 502.682 62.6747 503.887 61.3774C505.138 60.0337 505.763 58.4352 505.763 56.5819C505.763 54.775 505.138 53.2228 503.887 51.9255C502.682 50.6282 500.713 49.9795 497.979 49.9795Z" fill="gray"/>
<path d="M560.932 72.9834C557.596 72.9834 554.747 72.5896 552.384 71.8019C550.067 70.9679 548.121 69.9255 546.546 68.6745C545.017 67.3772 543.789 66.0335 542.863 64.6435C541.936 63.2072 541.241 61.8636 540.778 60.6126C540.361 59.3153 540.083 58.2728 539.944 57.4851C539.851 56.6511 539.805 56.2341 539.805 56.2341H550.647C550.647 56.2341 550.739 56.628 550.925 57.4156C551.156 58.2033 551.62 59.1299 552.315 60.1956C553.01 61.2149 554.075 62.1184 555.511 62.906C556.948 63.6474 558.894 64.018 561.349 64.018C564.361 64.018 566.585 63.3925 568.021 62.1416C569.458 60.8442 570.176 59.3153 570.176 57.5546C570.176 55.9793 569.62 54.7283 568.508 53.8017C567.442 52.875 565.774 52.18 563.504 51.7167L556.623 50.3962C553.844 49.8865 551.249 49.0757 548.84 47.9637C546.477 46.8517 544.554 45.3228 543.071 43.3768C541.588 41.3845 540.847 38.8362 540.847 35.7319C540.847 32.5812 541.635 29.8476 543.21 27.531C544.785 25.168 546.986 23.361 549.813 22.11C552.685 20.8127 556.044 20.1641 559.89 20.1641C563.504 20.1641 566.492 20.6969 568.855 21.7625C571.265 22.7819 573.164 24.056 574.554 25.585C575.991 27.0676 577.033 28.5735 577.682 30.1024C578.377 31.6314 578.817 32.9056 579.002 33.9249C579.234 34.9442 579.35 35.4539 579.35 35.4539H568.786C568.786 35.4539 568.693 35.1295 568.508 34.4809C568.369 33.8322 567.998 33.0909 567.396 32.2569C566.794 31.4229 565.867 30.6816 564.616 30.0329C563.411 29.3843 561.743 29.06 559.612 29.06C556.693 29.06 554.585 29.7086 553.288 31.0059C551.99 32.2569 551.342 33.6237 551.342 35.1064C551.342 36.6354 551.99 37.8168 553.288 38.6508C554.585 39.4848 556.276 40.1103 558.361 40.5273L565.658 41.9868C568.438 42.4965 570.987 43.3536 573.303 44.5583C575.62 45.7629 577.45 47.3846 578.794 49.4232C580.184 51.4155 580.879 53.8943 580.879 56.8596C580.879 59.9176 580.114 62.6744 578.585 65.13C577.056 67.5393 574.809 69.4621 571.844 70.8984C568.879 72.2884 565.241 72.9834 560.932 72.9834Z" fill="gray"/>
<path d="M143.949 136.018L158.362 95.466H163.568L178.035 136.018H173.541L169.87 125.551H152.114L148.443 136.018H143.949ZM153.43 121.715H168.554L160.992 100.343L153.43 121.715Z" fill="gray"/>
<path d="M209.156 136.018V95.466H213.376V132.237H234.584V136.018H209.156Z" fill="gray"/>
<path d="M266.983 136.018V95.466H271.203V132.237H292.41V136.018H266.983Z" fill="gray"/>
<path d="M324.81 136.018V95.466H329.03V136.018H324.81Z" fill="gray"/>
<path d="M360.219 136.018L374.631 95.466H379.837L394.304 136.018H389.811L386.139 125.551H368.384L364.712 136.018H360.219ZM369.699 121.715H384.824L377.261 100.343L369.699 121.715Z" fill="gray"/>
<path d="M425.426 136.018V95.466H429.317L451.949 128.456V95.466H456.169V136.018H452.278L429.645 103.028V136.018H425.426Z" fill="gray"/>
<path d="M507.209 136.566C504.067 136.566 501.309 135.981 498.934 134.812C496.56 133.607 494.587 132.018 493.016 130.045C491.445 128.035 490.258 125.807 489.454 123.359C488.687 120.875 488.303 118.336 488.303 115.742C488.303 113.148 488.687 110.609 489.454 108.125C490.258 105.64 491.445 103.412 493.016 101.439C494.587 99.4298 496.56 97.8406 498.934 96.6716C501.309 95.5025 504.067 94.918 507.209 94.918C509.766 94.918 511.958 95.2468 513.785 95.9044C515.648 96.562 517.201 97.4205 518.443 98.48C519.685 99.5394 520.69 100.654 521.457 101.823C522.224 102.992 522.791 104.106 523.156 105.166C523.558 106.225 523.814 107.084 523.923 107.741C524.069 108.399 524.142 108.728 524.142 108.728H519.868C519.868 108.728 519.795 108.399 519.649 107.741C519.503 107.084 519.192 106.262 518.717 105.275C518.242 104.289 517.53 103.302 516.58 102.316C515.667 101.33 514.443 100.508 512.908 99.85C511.41 99.1924 509.511 98.8636 507.209 98.8636C504.798 98.8636 502.679 99.3385 500.852 100.288C499.026 101.238 497.491 102.535 496.249 104.179C495.044 105.787 494.13 107.595 493.509 109.604C492.888 111.577 492.578 113.623 492.578 115.742C492.578 117.824 492.888 119.87 493.509 121.88C494.13 123.889 495.044 125.716 496.249 127.36C497.491 128.967 499.026 130.246 500.852 131.196C502.679 132.145 504.798 132.62 507.209 132.62C509.511 132.62 511.41 132.292 512.908 131.634C514.443 130.976 515.667 130.154 516.58 129.168C517.53 128.182 518.242 127.195 518.717 126.209C519.192 125.222 519.503 124.4 519.649 123.743C519.795 123.049 519.868 122.702 519.868 122.702H524.142C524.142 122.702 524.069 123.049 523.923 123.743C523.814 124.4 523.558 125.259 523.156 126.318C522.791 127.341 522.224 128.456 521.457 129.661C520.69 130.83 519.685 131.944 518.443 133.004C517.201 134.063 515.648 134.922 513.785 135.58C511.958 136.237 509.766 136.566 507.209 136.566Z" fill="gray"/>
<path d="M555.903 136.018V95.466H580.728V99.2472H560.123V113.44H578.152V117.222H560.123V132.237H581.002V136.018H555.903Z" fill="gray"/>
</svg>
