<svg xmlns="http://www.w3.org/2000/svg" version="1.1" viewBox="0 0 732.9 205.4" xml:space="preserve"><path d="M42.9 32.4c22.8 0 42.2 17 42.9 42.4.1 1.5.1 3.1-.2 4.6H11.3c.7 16.6 13.8 29.8 31.6 29.8 10.1.1 19.7-4.4 26.1-12.2h13.2c-8.1 13.9-23.1 22.5-39.2 22.5-24.3 0-43-19.4-43-43.4s18.6-43.7 42.9-43.7zm31.4 37.8C71.7 54.7 59.4 42.7 43 42.7c-16.7 0-29 12.3-31.7 27.5h63zM189.5 151.9h-10.8v-50.5c-7 11.2-19.3 18-32.6 18.1-24 .1-43.6-19.3-43.7-43.4-.1-24 19.3-43.6 43.4-43.7s43.6 19.3 43.7 43.4V151.9zm-10.6-76c0-18.6-14-33.2-32.7-33.2-18.6 0-32.7 14.7-32.7 33.2s14.5 33.2 32.7 33.2c18.4.1 32.7-14.6 32.7-33.2zM282.3 33.8v44.4c0 28.3-15.5 41.3-37.1 41.3s-37.1-13-37.1-41.3V33.8h10.8v44.4c0 21.1 10.6 31 26.3 31s26.3-10 26.3-31.1V33.8h10.8zM302.6 12.1c0-3.8 3.1-6.9 6.9-6.9 3.8 0 6.9 3.1 6.9 6.9 0 3.8-3.1 6.9-6.9 6.9-3.8.1-6.9-3-6.9-6.9zm1.5 21.7h10.8v84.4h-10.8V33.8zM378.4 32.4c24 0 43.5 19.5 43.5 43.5s-19.5 43.5-43.5 43.5c-13.2 0-25.6-6.8-32.6-18.1v50.5H335V75.9c-.1-24 19.3-43.5 43.3-43.5h.1zm32.7 43.5c0-18.6-14.2-33.2-32.7-33.2-18.7 0-32.7 14.7-32.7 33.2s14.3 33.2 32.7 33.2c18.2.1 32.7-14.6 32.7-33.2zM483 32.4c24 0 43.5 19.5 43.5 43.5S507 119.4 483 119.4c-13.2 0-25.6-6.8-32.6-18.1v50.5h-10.8V75.9c-.1-24 19.3-43.5 43.3-43.5h.1zm32.7 43.5c0-18.6-14.2-33.2-32.7-33.2-18.7 0-32.7 14.7-32.7 33.2s14.3 33.2 32.7 33.2c18.2.1 32.7-14.6 32.7-33.2zM586.3 32.4c22.8 0 42.2 17 42.9 42.4.1 1.5.1 3.1-.2 4.6h-74.2c.7 16.7 13.8 29.9 31.6 29.9 10.1.1 19.7-4.4 26.2-12.2h13.2c-8.1 13.9-23 22.5-39.2 22.4-24.3 0-43-19.4-43-43.4s18.4-43.7 42.7-43.7zm31.4 37.8c-2.5-15.5-14.8-27.5-31.2-27.5-16.7 0-29 12.3-31.7 27.5h62.9zM689.5 119.5c-24 0-43.5-19.5-43.5-43.5s19.5-43.5 43.5-43.5c13.2 0 25.5 6.8 32.6 18.1V0h10.8v75.9c.1 24-19.3 43.5-43.2 43.5 0 .1-.1.1-.2.1zm-32.7-43.6c0 18.6 14.2 33.2 32.7 33.2 18.7 0 32.7-14.7 32.7-33.2s-14.3-33.2-32.7-33.2c-18.2 0-32.7 14.7-32.7 33.2zM24.9 195.5H7.3L3.4 205H0l14.4-35.3h3.2L32.2 205h-3.4l-3.9-9.5zm-1.1-3L16 174l-7.7 18.5h15.5zM70.2 169.7V205H67l-22.5-29.7V205h-3.2v-35.3h3.2L67 199.4v-29.7h3.2zM104.2 195.5H86.5l-3.9 9.5h-3.4l14.4-35.3h3.2l14.5 35.3h-3.4l-3.7-9.5zm-1.2-3L95.3 174l-7.7 18.6 15.4-.1zM140.3 201.9v3.1h-19.8v-35.3h3.2V202l16.6-.1zM170.7 169.7l-13.1 19.1V205h-3.2v-16.2l-13-19.1h3.6l11 15.9 11.1-15.9h3.6zM203.5 172.8h-10.8V205h-3.2v-32.2h-10.8v-3.1h24.7l.1 3.1zM213.1 205v-35.3h3.2V205h-3.2zM226.7 187.4c0-9.9 8-18 17.9-18.1h.2c6.5-.1 12.5 3.4 15.6 9.2h-3.7c-2.7-3.8-7.2-6.1-11.9-6-8.2 0-14.9 6.7-14.8 14.9 0 8.2 6.7 14.9 14.9 14.8 4.6 0 9-2.2 11.8-5.8h3.7c-3.1 5.6-9.1 9.1-15.5 9-9.9.1-18.1-7.9-18.2-17.8v-.2zM292.7 195.5H275l-3.9 9.5h-3.4l14.4-35.3h3.2l14.5 35.3h-3.4l-3.7-9.5zm-1.2-3l-7.7-18.5-7.7 18.6 15.4-.1zM328.8 201.9v3.1H309v-35.3h3.2V202l16.6-.1zM359.5 205v-35.3h3.2V205h-3.2zM402.3 169.7V205H399l-22.4-29.7V205h-3.2v-35.3h3.2l22.5 29.7v-29.7h3.2zM436.6 172.8h-10.8V205h-3.2v-32.2h-10.8v-3.1h24.7l.1 3.1zM449.4 172.8V185H465v3.1h-15.6V202H467v3.1h-20.8v-35.3H467v3.1l-17.6-.1zM497.1 201.9v3.1h-19.8v-35.3h3.2V202l16.6-.1zM527.2 201.9v3.1h-19.8v-35.3h3.2V202l16.6-.1zM537.5 205v-35.3h3.2V205h-3.2zM569.3 205.4c-10 0-18.1-8.1-18.1-18.1 0-10 8.1-18.1 18.1-18.1 6.4-.1 12.3 3.3 15.5 8.8H581c-5.1-6.5-14.5-7.6-21-2.5s-7.6 14.5-2.5 21c2.8 3.6 7.1 5.7 11.7 5.7 6.5.1 12.3-4.2 14.1-10.4h-10.8V189h14.7c-.7 9.3-8.6 16.5-17.9 16.4zM600.9 172.8V185h15.6v3.1h-15.6V202h17.6v3.1h-20.8v-35.3h20.8v3.1l-17.6-.1zM657.7 169.7V205h-3.2L632 175.3V205h-3.2v-35.3h3.2l22.5 29.7v-29.7h3.2zM668 187.4c0-9.9 8-18 17.9-18.1h.2c6.5-.1 12.5 3.4 15.6 9.2H698c-2.7-3.8-7.2-6.1-11.9-6-8.2 0-14.9 6.7-14.8 14.9 0 8.2 6.7 14.9 14.9 14.8 4.6 0 9-2.2 11.8-5.8h3.7c-3.1 5.6-9.1 9.1-15.5 9-9.9.1-18.1-7.9-18.2-17.8.1-.1 0-.2 0-.2zM715.4 172.8V185H731v3.1h-15.6V202H733v3.1h-20.8v-35.3H733v3.1l-17.6-.1z" fill="#113b8c" /></svg>