<svg width="28" height="28" viewBox="0 0 28 28" fill="none" xmlns="http://www.w3.org/2000/svg">
<g clip-path="url(#clip0_905_33)">
<path d="M0 26.8335H28V28.0001H0V26.8335ZM28 8.80381V10.5001H24.5V22.1668H26.8333V23.3335H1.16667V22.1668H3.5V10.5001H0V8.80381C0 7.46797 0.742 6.26864 1.9355 5.67247L12.5708 0.359473C13.4598 -0.124694 14.539 -0.125861 15.4467 0.368806L26.0645 5.67131C27.258 6.26747 28 7.46914 28 8.80381ZM4.66667 22.1668H9.33333V10.5001H4.66667V22.1668ZM17.5 10.5001H10.5V22.1668H17.5V10.5001ZM23.3333 10.5001H18.6667V22.1668H23.3333V10.5001ZM26.8333 8.80381C26.8333 7.91364 26.3387 7.11331 25.543 6.71547L14.9065 1.40364C14.3325 1.08981 13.6663 1.08981 13.111 1.39431L2.457 6.71547C1.66017 7.11331 1.16667 7.91247 1.16667 8.80381V9.33347H26.8333V8.80381Z" fill="white"/>
</g>
<defs>
<clipPath id="clip0_905_33">
<rect width="28" height="28" fill="white"/>
</clipPath>
</defs>
</svg>
