<?xml version="1.0" encoding="iso-8859-1"?>
<!-- Uploaded to: SVG Repo, www.svgrepo.com, Generator: SVG Repo Mixer Tools -->
<svg height="800px" width="800px" version="1.1" id="Layer_1" xmlns="http://www.w3.org/2000/svg" xmlns:xlink="http://www.w3.org/1999/xlink" 
	 viewBox="0 0 512 512" xml:space="preserve">
<path style="fill:#FF6464;" d="M256,504.486C118.988,504.486,7.515,393.013,7.515,256S118.988,7.515,256,7.515
	S504.486,118.988,504.486,256S393.013,504.486,256,504.486z"/>
<path style="fill:#D2555A;" d="M371.96,421.657c-137.013,0-248.485-111.473-248.485-248.485c0-57.353,19.722-110.081,52.484-152.181
	C78.147,54.408,7.515,147.016,7.515,256c0,137.013,111.473,248.485,248.485,248.485c79.66,0,150.498-37.83,196.002-96.304
	C426.846,416.775,399.989,421.657,371.96,421.657z"/>
<g>
	<path style="fill:#FFFFFF;" d="M351.965,136.962l12.689-12.736c6.242-6.274,16.403-6.293,22.669-0.043
		c6.274,6.25,6.293,16.395,0.043,22.669L147.348,387.774c-3.121,3.137-7.224,4.71-11.326,4.718c-4.102,0.008-8.21-1.55-11.343-4.675
		c-6.274-6.25-6.293-16.395-0.043-22.669l204.702-205.473"/>
	<path style="fill:#FFFFFF;" d="M167.543,103.868c-35.415,0.066-64.071,28.83-64.005,64.245
		c0.066,35.415,28.83,64.071,64.245,64.005c35.415-0.066,64.071-28.83,64.005-64.245
		C231.722,132.458,202.958,103.802,167.543,103.868z M167.663,200.056c-17.708,0-32.063-14.355-32.063-32.063
		s14.355-32.063,32.063-32.063s32.063,14.355,32.063,32.063S185.371,200.056,167.663,200.056z"/>
	<path style="fill:#FFFFFF;" d="M344.218,279.881c-35.415,0.066-64.071,28.83-64.004,64.245
		c0.067,35.415,28.83,64.071,64.245,64.005c35.415-0.066,64.071-28.83,64.004-64.245
		C408.397,308.471,379.633,279.815,344.218,279.881z M344.338,376.069c-17.708,0-32.063-14.355-32.063-32.063
		c0-17.708,14.355-32.063,32.063-32.063c17.708,0,32.063,14.355,32.063,32.063S362.046,376.069,344.338,376.069z"/>
</g>
<path d="M436.841,74.803C388.508,26.565,324.289,0,256.011,0h-0.492c-68.381,0.128-132.617,26.878-180.878,75.32
	C26.38,123.764-0.128,188.101,0,256.48C0.129,324.78,26.82,388.961,75.156,437.201c48.33,48.235,112.553,74.798,180.835,74.798h0.49
	c68.38-0.129,132.617-26.878,180.877-75.321c48.261-48.444,74.769-112.78,74.641-181.16
	C511.872,187.224,485.179,123.045,436.841,74.803z M256.453,496.97h-0.462c-132.617,0-240.712-107.895-240.962-240.517
	c-0.12-64.367,24.831-124.926,70.259-170.525S191.182,15.151,255.548,15.03h0.464c132.616,0,240.71,107.896,240.96,240.517
	C497.221,388.419,389.325,496.72,256.453,496.97z"/>
<path d="M399.555,135.496c-0.012-6.288-2.472-12.196-6.926-16.632c-4.443-4.432-10.343-6.87-16.619-6.87
	c-0.015,0-0.03,0-0.045,0.001c-6.293,0.012-12.202,2.474-16.635,6.929L346.64,131.66c-2.929,2.941-2.92,7.698,0.021,10.627
	c2.939,2.928,7.697,2.919,10.627-0.021l12.692-12.74c1.602-1.61,3.737-2.499,6.013-2.503c0.005-0.001,0.011-0.001,0.017-0.001
	c2.269,0,4.402,0.882,6.01,2.485c3.327,3.313,3.337,8.715,0.022,12.043L142.021,382.473c-1.602,1.61-3.737,2.5-6.013,2.504
	c-0.006,0-0.011,0-0.017,0c-2.269,0-4.402-0.881-6.009-2.484c-1.612-1.606-2.503-3.742-2.507-6.016
	c-0.004-2.274,0.878-4.414,2.484-6.027l204.702-205.473c2.929-2.941,2.92-7.698-0.02-10.627c-2.941-2.929-7.698-2.92-10.628,0.021
	L119.312,359.844c-4.44,4.456-6.878,10.373-6.866,16.661c0.012,6.288,2.472,12.196,6.926,16.633
	c4.443,4.432,10.342,6.869,16.618,6.869c0.015,0,0.031,0,0.046,0c6.293-0.012,12.203-2.474,16.635-6.93l240.017-240.921
	C397.128,147.701,399.567,141.783,399.555,135.496z"/>
<path d="M167.66,239.633h0.137c19.135-0.036,37.113-7.522,50.618-21.078c13.505-13.556,20.923-31.561,20.888-50.696
	c-0.074-39.429-32.21-71.506-71.637-71.506h-0.138c-19.135,0.036-37.112,7.522-50.618,21.077
	c-13.505,13.556-20.923,31.562-20.888,50.697C96.097,207.557,128.233,239.633,167.66,239.633z M127.558,128.04
	c10.672-10.712,24.878-16.627,39.998-16.656h0.109c31.155,0,56.548,25.348,56.608,56.504c0.028,15.122-5.833,29.348-16.505,40.06
	c-10.672,10.713-24.878,16.628-39.998,16.657h-0.109c-31.155,0-56.548-25.348-56.608-56.504
	C111.024,152.978,116.886,138.751,127.558,128.04z"/>
<path d="M344.341,272.366h-0.137c-39.502,0.074-71.579,32.272-71.505,71.774c0.074,39.429,32.21,71.506,71.637,71.506h0.137
	c39.502-0.075,71.579-32.274,71.505-71.775C415.904,304.443,383.768,272.366,344.341,272.366z M344.444,400.617h-0.109
	c-31.155,0-56.548-25.348-56.608-56.504c-0.059-31.215,25.288-56.659,56.504-56.717h0.109c31.155,0,56.548,25.348,56.608,56.503
	C401.008,375.114,375.659,400.558,344.444,400.617z"/>
<path d="M167.661,207.571c0.025,0,0.051,0,0.076,0c21.823-0.041,39.544-17.829,39.503-39.652c-0.006-3.358-0.436-6.695-1.274-9.92
	c-1.045-4.016-5.147-6.427-9.165-5.378c-4.017,1.045-6.426,5.149-5.38,9.165c0.521,1.999,0.787,4.073,0.791,6.162
	c0.025,13.536-10.966,24.569-24.502,24.595c-0.016,0-0.031,0-0.047,0c-6.539,0-12.691-2.541-17.324-7.158
	c-4.645-4.627-7.21-10.788-7.222-17.345c-0.012-6.558,2.529-12.726,7.157-17.372c4.628-4.645,10.788-7.209,17.347-7.222
	c2.085-0.005,4.15,0.251,6.145,0.762c4.021,1.025,8.114-1.399,9.142-5.42c1.028-4.021-1.399-8.114-5.42-9.142
	c-3.22-0.822-6.534-1.205-9.897-1.23c-10.572,0.02-20.502,4.155-27.964,11.644c-7.461,7.49-11.56,17.436-11.54,28.007
	c0.02,10.573,4.155,20.503,11.645,27.965C147.201,203.476,157.117,207.571,167.661,207.571z"/>
<path d="M373.476,328.632c-4.017,1.045-6.426,5.149-5.38,9.165c0.521,1.999,0.787,4.072,0.791,6.162
	c0.025,13.536-10.965,24.569-24.502,24.595c-0.016,0-0.031,0-0.047,0c-13.514,0-24.522-10.982-24.547-24.502
	c-0.012-6.558,2.529-12.726,7.157-17.372c4.628-4.645,10.788-7.209,17.347-7.222c2.065,0.001,4.149,0.252,6.144,0.762
	c4.022,1.028,8.114-1.399,9.142-5.42c1.028-4.021-1.399-8.114-5.419-9.142c-3.22-0.823-6.548-1.251-9.897-1.23
	c-10.572,0.02-20.502,4.155-27.964,11.644c-7.461,7.49-11.56,17.436-11.54,28.007c0.041,21.8,17.786,39.506,39.576,39.504
	c0.024,0,0.052,0,0.076,0c10.572-0.02,20.502-4.155,27.964-11.645c7.461-7.49,11.56-17.436,11.54-28.007
	c-0.006-3.357-0.435-6.695-1.275-9.921C381.596,329.995,377.495,327.586,373.476,328.632z"/>
</svg>