<svg width="24" height="28" viewBox="0 0 24 28" fill="none" xmlns="http://www.w3.org/2000/svg">
<path d="M23 7.58366V4.08366C23 2.47483 21.879 1.16699 20.5 1.16699H3.5C2.121 1.16699 1 2.47483 1 4.08366V7.58366C1 8.53683 1.394 9.38499 2.001 9.91699C1.393 10.449 1 11.2972 1 12.2503V15.7503C1 16.7035 1.394 17.5517 2.001 18.0837C1.393 18.6157 1 19.4638 1 20.417V26.8337H23V20.417C23 19.4638 22.606 18.6157 21.999 18.0837C22.607 17.5517 23 16.7035 23 15.7503V12.2503C23 11.2972 22.606 10.449 21.999 9.91699C22.607 9.38499 23 8.53683 23 7.58366ZM22 20.417V25.667H2V20.417C2 19.4522 2.673 18.667 3.5 18.667H5V21.0003H6V18.667H9V21.0003H10V18.667H20.5C21.327 18.667 22 19.4522 22 20.417ZM22 12.2503V15.7503C22 16.7152 21.327 17.5003 20.5 17.5003H3.5C2.673 17.5003 2 16.7152 2 15.7503V12.2503C2 11.2855 2.673 10.5003 3.5 10.5003H5V12.8337H6V10.5003H9V12.8337H10V10.5003H20.5C21.327 10.5003 22 11.2855 22 12.2503ZM22 7.58366C22 8.54849 21.327 9.33366 20.5 9.33366H3.5C2.673 9.33366 2 8.54849 2 7.58366V4.08366C2 3.11883 2.673 2.33366 3.5 2.33366H5V4.66699H6V2.33366H9V4.66699H10V2.33366H20.5C21.327 2.33366 22 3.11883 22 4.08366V7.58366Z" fill="white"/>
</svg>
