<svg width="28" height="28" viewBox="0 0 28 28" fill="none" xmlns="http://www.w3.org/2000/svg">
<path d="M25.0833 5.83366H18.6667V1.16699H9.33333V5.83366H2.91667C1.30783 5.83366 0 7.14266 0 8.75033V26.8337H28V8.75033C28 7.14266 26.6922 5.83366 25.0833 5.83366ZM10.5 2.33366H17.5V5.83366H10.5V2.33366ZM26.8333 25.667H1.16667V8.75033C1.16667 7.78549 1.95183 7.00033 2.91667 7.00033H25.0833C26.0482 7.00033 26.8333 7.78549 26.8333 8.75033V25.667ZM14.5833 15.7503H18.6667V16.917H14.5833V21.0003H13.4167V16.917H9.33333V15.7503H13.4167V11.667H14.5833V15.7503Z" fill="white"/>
</svg>
