<svg width="28" height="28" viewBox="0 0 28 28" fill="none" xmlns="http://www.w3.org/2000/svg">
<g clip-path="url(#clip0_905_41)">
<path d="M15.6018 26.8333C16.0113 27.2627 16.4372 27.6512 16.8607 28H2.91667C1.309 28 0 26.691 0 25.0833V2.33333H5.89167C6.16233 1.00333 7.34067 0 8.75 0H12.25C13.6593 0 14.8365 1.00333 15.1083 2.33333H21V9.6565L19.8333 10.0438V3.5H14V2.91667C14 1.95183 13.2148 1.16667 12.25 1.16667H8.75C7.78517 1.16667 7 1.95183 7 2.91667V3.5H1.16667V25.0833C1.16667 26.0482 1.95183 26.8333 2.91667 26.8333H15.6018ZM28 15.4035V20.4738C28 25.2525 23.464 27.4482 22.0733 28.0082L21.5588 28.2147L21.063 27.9673C19.6793 27.2767 15.1667 24.6937 15.1667 20.475V15.4047C15.1667 14.595 15.6835 13.8787 16.4547 13.6243L21.5833 11.9233L26.712 13.6243C27.482 13.8787 28 14.595 28 15.4047V15.4035ZM26.8333 15.4035C26.8333 15.0967 26.6373 14.826 26.3468 14.7303L21.5833 13.1507L16.821 14.7303C16.5293 14.8272 16.3333 15.0978 16.3333 15.4035V20.4738C16.3333 24.0228 20.3525 26.3072 21.5845 26.9232L21.6102 26.936L21.637 26.9255C22.855 26.4355 26.8322 24.521 26.8322 20.4738L26.8333 15.4035ZM16.3333 8.16667H4.66667V9.33333H16.3333V8.16667ZM12.8333 12.8333H4.66667V14H12.8333V12.8333ZM4.66667 18.6667H12.8333V17.5H4.66667V18.6667Z" fill="white"/>
</g>
<defs>
<clipPath id="clip0_905_41">
<rect width="28" height="28" fill="white"/>
</clipPath>
</defs>
</svg>
