<svg width="28" height="28" viewBox="0 0 28 28" fill="none" xmlns="http://www.w3.org/2000/svg">
<g clip-path="url(#clip0_905_39)">
<path d="M2.33324 15.7908L3.49991 14.6242V28H2.33324V15.7908ZM13.9614 9.92017L13.9999 28.0012L15.1666 27.9988L15.1304 11.0892L13.9614 9.92017ZM8.12924 9.99483L8.16657 28.0012L9.33324 27.9988L9.29357 8.8305L8.12924 9.99483ZM25.0891 14H23.9166V11.6667H22.7499V14H21.5774C19.9721 14 18.6666 15.3055 18.6666 16.9108C18.6666 18.2035 19.5346 19.355 20.7782 19.7085L25.5686 21.0782C26.3129 21.2917 26.8332 21.98 26.8332 22.7558C26.8332 23.7172 26.0504 24.5 25.0891 24.5H21.5774C20.6161 24.5 19.8332 23.7172 19.8332 22.7558V22.1667H18.6666V22.7558C18.6666 24.3612 19.9721 25.6667 21.5774 25.6667H22.7499V28H23.9166V25.6667H25.0891C26.6944 25.6667 27.9999 24.3612 27.9999 22.7558C27.9999 21.4632 27.1319 20.3117 25.8882 19.9582L21.0979 18.5885C20.3536 18.375 19.8332 17.6867 19.8332 16.9108C19.8332 15.9495 20.6161 15.1667 21.5774 15.1667H25.0891C26.0504 15.1667 26.8332 15.9495 26.8332 16.9108V17.5H27.9999V16.9108C27.9999 15.3055 26.6944 14 25.0891 14ZM26.2499 0H19.8332V1.16667H26.0084L18.0832 9.09183L11.0832 2.09183L0.0664062 13.1087L0.89124 13.9335L11.0832 3.7415L18.0832 10.7415L26.8332 1.9915V8.16667H27.9999V1.75C27.9999 0.785167 27.2147 0 26.2499 0Z" fill="white"/>
</g>
<defs>
<clipPath id="clip0_905_39">
<rect width="28" height="28" fill="white"/>
</clipPath>
</defs>
</svg>
