<svg width="38" height="38" viewBox="0 0 38 38" fill="none" xmlns="http://www.w3.org/2000/svg">
<rect width="38" height="38" rx="4" fill="#151C24"/>
<g clip-path="url(#clip0_1002_67)">
<path d="M31 19C31 21.791 29.353 24.195 26.984 25.316C26.988 25.21 27 25.106 27 25C27 24.733 26.986 24.47 26.96 24.209C28.773 23.177 30 21.232 30 19C30 16.041 27.796 13.489 24.874 13.063L24.587 13.021L24.481 12.751C23.344 9.864 20.604 7.999 17.501 7.999C13.365 7.999 10.001 11.363 10.001 15.499C10.001 16.134 10.08 16.764 10.237 17.373L10.335 17.753L9.98895 17.939C8.76295 18.593 8.00195 19.863 8.00195 21.25C8.00195 23.062 9.29495 24.577 11.006 24.924C11.006 24.949 11.002 24.974 11.002 25C11.002 25.315 11.025 25.624 11.06 25.93C8.76995 25.592 7.00195 23.632 7.00195 21.25C7.00195 19.623 7.82895 18.125 9.18295 17.254C9.06295 16.68 9.00195 16.091 9.00195 15.5C8.99995 10.813 12.813 7 17.5 7C20.921 7 23.953 9 25.302 12.121C28.571 12.737 31 15.644 31 19ZM23.5 25C23.5 24.726 23.47 24.449 23.406 24.15L24.932 23.253L23.411 20.667L21.895 21.559C21.487 21.219 21.013 20.953 20.499 20.773V19.002H17.499V20.773C16.984 20.953 16.511 21.219 16.103 21.559L14.587 20.667L13.066 23.253L14.592 24.15C14.529 24.449 14.498 24.726 14.498 25C14.498 25.274 14.528 25.551 14.592 25.85L13.066 26.747L14.587 29.333L16.103 28.441C16.511 28.781 16.985 29.047 17.499 29.227V30.998H20.499V29.227C21.014 29.047 21.487 28.781 21.895 28.441L23.411 29.333L24.932 26.747L23.406 25.85C23.469 25.551 23.5 25.274 23.5 25ZM23.563 27.103L23.056 27.965L21.725 27.169C21.182 27.849 20.4 28.319 19.5 28.45V30.001H18.5V28.45C17.605 28.32 16.827 27.855 16.284 27.181L14.943 27.965L14.436 27.103L15.764 26.327C15.595 25.917 15.499 25.47 15.499 25C15.499 24.536 15.594 24.094 15.759 23.688L14.435 22.897L14.942 22.035L16.273 22.831C16.816 22.151 17.598 21.681 18.498 21.55V19.999H19.498V21.55C20.401 21.681 21.185 22.153 21.728 22.836L23.055 22.034L23.562 22.896L22.241 23.694C22.404 24.098 22.499 24.537 22.499 24.999C22.499 25.464 22.404 25.905 22.239 26.311L23.563 27.102V27.103ZM19 23C17.897 23 17 23.897 17 25C17 26.103 17.897 27 19 27C20.103 27 21 26.103 21 25C21 23.897 20.103 23 19 23ZM19 26C18.448 26 18 25.551 18 25C18 24.449 18.448 24 19 24C19.552 24 20 24.449 20 25C20 25.551 19.552 26 19 26Z" fill="white"/>
</g>
<defs>
<clipPath id="clip0_1002_67">
<rect width="24" height="24" fill="white" transform="translate(7 7)"/>
</clipPath>
</defs>
</svg>
