<svg width="38" height="38" viewBox="0 0 38 38" fill="none" xmlns="http://www.w3.org/2000/svg">
<rect width="38" height="38" rx="4" fill="#151C24"/>
<g clip-path="url(#clip0_1019_31)">
<path d="M16 19C19.309 19 22 16.309 22 13C22 9.691 19.309 7 16 7C12.691 7 10 9.691 10 13C10 16.309 12.691 19 16 19ZM16 8C18.757 8 21 10.243 21 13C21 15.757 18.757 18 16 18C13.243 18 11 15.757 11 13C11 10.243 13.243 8 16 8ZM24.5 18C20.916 18 18 20.916 18 24.5C18 28.084 20.916 31 24.5 31C28.084 31 31 28.084 31 24.5C31 20.916 28.084 18 24.5 18ZM24.5 30C21.467 30 19 27.532 19 24.5C19 21.468 21.467 19 24.5 19C27.533 19 30 21.468 30 24.5C30 27.532 27.533 30 24.5 30ZM27.44 22.549L28.141 23.262L24.684 26.661C24.467 26.879 24.174 27 23.862 27C23.55 27 23.258 26.879 23.037 26.658L21.186 24.864L21.882 24.145L23.738 25.945C23.8 26.006 23.924 26.007 23.979 25.951L27.439 22.549H27.44ZM16.76 21C16.613 21.324 16.481 21.656 16.375 22H11.5C9.57 22 8 23.57 8 25.5V31H7V25.5C7 23.019 9.019 21 11.5 21H16.76Z" fill="white"/>
</g>
<defs>
<clipPath id="clip0_1019_31">
<rect width="24" height="24" fill="white" transform="translate(7 7)"/>
</clipPath>
</defs>
</svg>
