<svg width="38" height="38" viewBox="0 0 38 38" fill="none" xmlns="http://www.w3.org/2000/svg">
<rect width="38" height="38" rx="4" fill="#151C24"/>
<g clip-path="url(#clip0_1002_70)">
<path d="M31 17.9804C31 16.4184 30.201 14.9584 28.894 14.0934C28.904 13.9964 28.909 13.8984 28.909 13.7994C28.909 11.8474 27.634 10.2854 25.914 10.0554C25.574 8.32537 24.042 7.02637 22.25 7.02637C20.862 7.02637 19.649 7.78337 19 8.90737C18.351 7.78337 17.138 7.02637 15.75 7.02637C13.959 7.02637 12.427 8.32437 12.086 10.0524C10.376 10.2714 9.09 11.8384 9.09 13.7984C9.09 13.8984 9.095 13.9964 9.105 14.0924C7.798 14.9574 7 16.4174 7 17.9794C7 18.9144 7.282 19.8104 7.818 20.5934C7.281 21.3764 7 22.2724 7 23.2074C7 24.8494 7.871 26.3624 9.289 27.2094C9.911 29.4674 11.939 31.0254 14.296 31.0254C16.37 31.0254 18.165 29.8054 19.001 28.0454C19.837 29.8054 21.631 31.0254 23.706 31.0254C26.063 31.0254 28.091 29.4674 28.713 27.2094C30.13 26.3624 31.002 24.8494 31.002 23.2074C31.002 22.2724 30.72 21.3764 30.184 20.5934C30.721 19.8104 31.002 18.9144 31.002 17.9794L31 17.9804ZM14.295 30.0264C12.332 30.0264 10.65 28.6864 10.208 26.7684L10.157 26.5474L9.957 26.4404C8.75 25.7944 8 24.5554 8 23.2094C8 22.3774 8.287 21.5824 8.831 20.9094L9.084 20.5954L8.831 20.2814C8.288 19.6084 8 18.8134 8 17.9814C8 16.6654 8.725 15.4404 9.892 14.7854L10.202 14.6114C10.202 14.6114 10.091 13.9584 10.091 13.7994C10.091 12.4364 10.992 11.0274 12.526 11.0274H12.989L13.025 10.5664C13.135 9.14337 14.332 8.02737 15.751 8.02737C17.268 8.02737 18.501 9.26037 18.501 10.7774V16.0014H15.438C15.215 15.1394 14.432 14.5014 13.501 14.5014C12.398 14.5014 11.501 15.3984 11.501 16.5014C11.501 17.6044 12.398 18.5014 13.501 18.5014C14.431 18.5014 15.215 17.8634 15.438 17.0014H18.501V23.0014H15.438C15.215 22.1394 14.432 21.5014 13.501 21.5014C12.398 21.5014 11.501 22.3984 11.501 23.5014C11.501 24.6044 12.398 25.5014 13.501 25.5014C14.431 25.5014 15.215 24.8634 15.438 24.0014H18.501V25.8224C18.501 28.1404 16.615 30.0274 14.296 30.0274L14.295 30.0264ZM14.5 16.5004C14.5 17.0514 14.051 17.5004 13.5 17.5004C12.949 17.5004 12.5 17.0514 12.5 16.5004C12.5 15.9494 12.949 15.5004 13.5 15.5004C14.051 15.5004 14.5 15.9494 14.5 16.5004ZM14.5 23.5004C14.5 24.0514 14.051 24.5004 13.5 24.5004C12.949 24.5004 12.5 24.0514 12.5 23.5004C12.5 22.9494 12.949 22.5004 13.5 22.5004C14.051 22.5004 14.5 22.9494 14.5 23.5004ZM29.169 20.9084C29.712 21.5814 30 22.3764 30 23.2084C30 24.5554 29.25 25.7934 28.043 26.4394L27.843 26.5464L27.792 26.7674C27.349 28.6854 25.668 30.0254 23.705 30.0254C21.387 30.0254 19.5 28.1394 19.5 25.8204V21.9994H25V18.4364C25.862 18.2134 26.5 17.4304 26.5 16.4994C26.5 15.3964 25.603 14.4994 24.5 14.4994C23.397 14.4994 22.5 15.3964 22.5 16.4994C22.5 17.4294 23.138 18.2134 24 18.4364V20.9994H19.5V10.7764C19.5 9.25937 20.733 8.02637 22.25 8.02637C23.669 8.02637 24.866 9.14137 24.976 10.5654L25.037 11.0264H25.5C27.008 11.0264 27.909 12.4364 27.909 13.7984C27.909 13.9574 27.799 14.6104 27.799 14.6104L28.108 14.7844C29.275 15.4394 30 16.6644 30 17.9804C30 18.8124 29.713 19.6074 29.169 20.2804L28.916 20.5944L29.169 20.9084ZM24.5 17.5004C23.949 17.5004 23.5 17.0514 23.5 16.5004C23.5 15.9494 23.949 15.5004 24.5 15.5004C25.051 15.5004 25.5 15.9494 25.5 16.5004C25.5 17.0514 25.051 17.5004 24.5 17.5004Z" fill="white"/>
</g>
<defs>
<clipPath id="clip0_1002_70">
<rect width="24" height="24" fill="white" transform="translate(7 7)"/>
</clipPath>
</defs>
</svg>
