<svg width="38" height="38" viewBox="0 0 38 38" fill="none" xmlns="http://www.w3.org/2000/svg">
<rect width="38" height="38" rx="4" fill="#151C24"/>
<g clip-path="url(#clip0_1002_73)">
<path d="M29 27C28.071 27 27.295 27.64 27.071 28.5H24V21H23V29.5H27.071C27.295 30.36 28.071 31 29 31C30.103 31 31 30.103 31 29C31 27.897 30.103 27 29 27ZM29 30C28.449 30 28 29.552 28 29C28 28.448 28.449 28 29 28C29.551 28 30 28.448 30 29C30 29.552 29.551 30 29 30ZM19.5 27.071V21H18.5V27.071C17.64 27.295 17 28.071 17 29C17 30.103 17.897 31 19 31C20.103 31 21 30.103 21 29C21 28.071 20.36 27.295 19.5 27.071ZM19 30C18.449 30 18 29.552 18 29C18 28.448 18.449 28 19 28C19.551 28 20 28.448 20 29C20 29.552 19.551 30 19 30ZM14 28.5H10.929C10.705 27.64 9.929 27 9 27C7.897 27 7 27.897 7 29C7 30.103 7.897 31 9 31C9.929 31 10.705 30.36 10.929 29.5H15V21H14V28.5ZM9 30C8.449 30 8 29.552 8 29C8 28.448 8.449 28 9 28C9.551 28 10 28.448 10 29C10 29.552 9.551 30 9 30ZM24.037 12.308C23.018 9.691 20.551 8 17.75 8C14.028 8 11 11.028 11 14.75C11 15.29 11.072 15.849 11.215 16.409L11.31 16.785L10.969 16.972C9.754 17.634 9 18.89 9 20.25C9 22.061 10.29 23.576 12 23.924V24.924C9.738 24.561 8 22.612 8 20.25C8 18.65 8.819 17.166 10.161 16.29C10.054 15.771 10 15.255 10 14.75C10 10.477 13.477 7 17.75 7C20.876 7 23.641 8.834 24.867 11.695C27.857 12.43 30 15.144 30 18.25C30 20.992 28.354 23.353 26 24.408V23.298C27.786 22.321 29 20.425 29 18.25C29 15.527 27.067 13.158 24.403 12.616L24.135 12.561L24.036 12.307L24.037 12.308Z" fill="white"/>
</g>
<defs>
<clipPath id="clip0_1002_73">
<rect width="24" height="24" fill="white" transform="translate(7 7)"/>
</clipPath>
</defs>
</svg>
