<svg width="24" height="24" viewBox="0 0 24 24" fill="none" xmlns="http://www.w3.org/2000/svg">
<g clip-path="url(#clip0_1002_31)">
<path d="M24 12C24 14.791 22.353 17.195 19.984 18.316C19.988 18.21 20 18.106 20 18C20 17.733 19.986 17.47 19.96 17.209C21.773 16.177 23 14.232 23 12C23 9.041 20.796 6.489 17.874 6.063L17.587 6.021L17.481 5.751C16.344 2.864 13.604 0.999 10.501 0.999C6.36495 0.999 3.00095 4.363 3.00095 8.499C3.00095 9.134 3.07995 9.764 3.23695 10.373L3.33495 10.753L2.98895 10.939C1.76295 11.593 1.00195 12.863 1.00195 14.25C1.00195 16.062 2.29495 17.577 4.00595 17.924C4.00595 17.949 4.00195 17.974 4.00195 18C4.00195 18.315 4.02495 18.624 4.05995 18.93C1.76995 18.592 0.00195312 16.632 0.00195312 14.25C0.00195312 12.623 0.828953 11.125 2.18295 10.254C2.06295 9.68 2.00195 9.091 2.00195 8.5C1.99995 3.813 5.81295 0 10.5 0C13.921 0 16.953 2 18.302 5.121C21.571 5.737 24 8.644 24 12ZM16.5 18C16.5 17.726 16.47 17.449 16.406 17.15L17.932 16.253L16.411 13.667L14.895 14.559C14.487 14.219 14.013 13.953 13.499 13.773V12.002H10.499V13.773C9.98395 13.953 9.51095 14.219 9.10295 14.559L7.58695 13.667L6.06595 16.253L7.59195 17.15C7.52895 17.449 7.49795 17.726 7.49795 18C7.49795 18.274 7.52795 18.551 7.59195 18.85L6.06595 19.747L7.58695 22.333L9.10295 21.441C9.51095 21.781 9.98495 22.047 10.499 22.227V23.998H13.499V22.227C14.014 22.047 14.487 21.781 14.895 21.441L16.411 22.333L17.932 19.747L16.406 18.85C16.469 18.551 16.5 18.274 16.5 18ZM16.563 20.103L16.056 20.965L14.725 20.169C14.182 20.849 13.4 21.319 12.5 21.45V23.001H11.5V21.45C10.605 21.32 9.82695 20.855 9.28395 20.181L7.94295 20.965L7.43595 20.103L8.76395 19.327C8.59495 18.917 8.49895 18.47 8.49895 18C8.49895 17.536 8.59395 17.094 8.75895 16.688L7.43495 15.897L7.94195 15.035L9.27295 15.831C9.81595 15.151 10.598 14.681 11.498 14.55V12.999H12.498V14.55C13.401 14.681 14.185 15.153 14.728 15.836L16.055 15.034L16.562 15.896L15.241 16.694C15.404 17.098 15.499 17.537 15.499 17.999C15.499 18.464 15.404 18.905 15.239 19.311L16.563 20.102V20.103ZM12 16C10.897 16 9.99995 16.897 9.99995 18C9.99995 19.103 10.897 20 12 20C13.103 20 14 19.103 14 18C14 16.897 13.103 16 12 16ZM12 19C11.448 19 11 18.551 11 18C11 17.449 11.448 17 12 17C12.552 17 13 17.449 13 18C13 18.551 12.552 19 12 19Z" fill="white"/>
</g>
<defs>
<clipPath id="clip0_1002_31">
<rect width="24" height="24" fill="white"/>
</clipPath>
</defs>
</svg>
